<svg width="34" height="33" viewBox="0 0 34 33" fill="none" xmlns="http://www.w3.org/2000/svg">
<path d="M16.5241 1.10453C16.6731 0.642482 17.3269 0.642484 17.4759 1.10452L20.7673 11.3103C20.9675 11.9311 21.5459 12.3513 22.1981 12.3499L32.9215 12.3264C33.407 12.3254 33.609 12.9471 33.2156 13.2316L24.5264 19.5157C23.9979 19.8979 23.777 20.5779 23.9799 21.1977L27.3159 31.389C27.4669 31.8504 26.9381 32.2346 26.5459 31.9484L17.8843 25.6264C17.3575 25.2419 16.6425 25.2419 16.1157 25.6264L7.45407 31.9484C7.06194 32.2346 6.53308 31.8504 6.6841 31.389L10.0201 21.1977C10.223 20.5779 10.0021 19.8979 9.47355 19.5157L0.784398 13.2316C0.391016 12.9471 0.593025 12.3254 1.0785 12.3264L11.8019 12.3499C12.4541 12.3513 13.0325 11.9311 13.2327 11.3103L16.5241 1.10453Z" stroke="#015D97"/>
</svg>
