<svg width="34" height="33" viewBox="0 0 34 33" fill="none" xmlns="http://www.w3.org/2000/svg">
<path d="M16.0483 0.951057C16.3463 0.0269735 17.6537 0.0269718 17.9517 0.951055L21.2431 11.1568C21.3766 11.5707 21.7622 11.8508 22.1971 11.8499L32.9204 11.8264C33.8914 11.8243 34.2954 13.0677 33.5086 13.6367L24.8195 19.9208C24.4671 20.1756 24.3198 20.6289 24.4551 21.0422L27.7911 31.2335C28.0931 32.1562 27.0354 32.9247 26.2512 32.3523L17.5896 26.0303C17.2383 25.7739 16.7617 25.7739 16.4104 26.0303L7.74885 32.3523C6.96458 32.9247 5.90686 32.1562 6.20892 31.2335L9.54491 21.0422C9.68018 20.6289 9.53289 20.1756 9.18054 19.9208L0.49139 13.6367C-0.295371 13.0677 0.108641 11.8243 1.07959 11.8264L11.8029 11.8499C12.2378 11.8508 12.6234 11.5707 12.7569 11.1568L16.0483 0.951057Z" fill="#015D97"/>
</svg>
