<?xml version="1.0" encoding="UTF-8"?><svg id="Calque_1" xmlns="http://www.w3.org/2000/svg" xmlns:xlink="http://www.w3.org/1999/xlink" viewBox="0 0 435.58 157.17"><defs><style>.cls-1{font-family:MyriadPro-Regular, 'Myriad Pro';}.cls-2{fill:url(#Eau_10-2);}.cls-2,.cls-3{stroke:#000;stroke-miterlimit:10;stroke-width:5px;}.cls-4{font-family:NanumMyeongjoExtraBold, NanumMyeongjo;}.cls-3{fill:url(#Eau_10);}.cls-5{font-size:72px;}.cls-6{fill:none;font-size:120px;}</style><linearGradient id="Eau_10" x1="177.99" y1="92.44" x2="243.18" y2="92.44" gradientTransform="translate(-24.54 -42.31) rotate(7.16)" gradientUnits="userSpaceOnUse"><stop offset="0" stop-color="#5a86b6"/><stop offset=".11" stop-color="#5082b3"/><stop offset=".29" stop-color="#3778ab"/><stop offset=".51" stop-color="#0e679f"/><stop offset=".58" stop-color="#00629b"/><stop offset="1" stop-color="#004b88"/></linearGradient><linearGradient id="Eau_10-2" x1="173.33" y1="91.95" x2="247.52" y2="91.95" xlink:href="#Eau_10"/></defs><text class="cls-5" transform="translate(0 61.23)"><tspan class="cls-4" x="0" y="0">G</tspan><tspan class="cls-1" x="56.67" y="0">i</tspan><tspan class="cls-4" x="73.52" y="0">te</tspan></text><text class="cls-4" transform="translate(151.29 127.41)"><tspan class="cls-6" x="0" y="0">S</tspan><tspan class="cls-5" x="60.94" y="0">auvage</tspan></text><g><g><path class="cls-3" d="m197.36,77.36c-4.04-3.71-7.39-7.9-11.43-11.61-3.89-3.48-8.04-6.61-12.28-9.85-2.39-1.78-3.31-4.38-3.17-7.19.18-2.5.54-5.46,1.78-7.65,1.04-1.72,3.37-2.79,5.39-3.82,5.51-2.89,11.64-2.11,17.53-2.2,4.03-.03,8.81-.5,12.88.67.63-3.91-2.62-11.82-8.87-14.25-.62-.23-1.15-.61-1.65-1.04-.12.01-.24.03-.37.03-2.46.14-4.88-.43-7.06-.65-4.87.08-9.78.35-14.69.62-.62.08-1.17.28-1.63.6-3.26,1.7-6.6,3.29-9.79,5.1-4.89,2.8-9.82,5.8-14.67,8.92-2.99,1.86-4.68,4.87-5.2,8.11-.7,4.72,1.66,8.72,4.77,12.05,3.26,3.56,6.99,6.81,10.25,10.37,5.27,5.77,10.38,11.81,15.65,17.58,3.26,3.56,4.07,7.77,3.41,12.29-.86,5.5-4.34,9.39-8.84,12.27-2.99,1.85-5.94,3.51-8.97,5.06-2.45,1.15-4.9,2.3-7.43,2.82-4.09.73-7.03-.55-11.84,2.53-8.34,5.82,2.83,15.05,13.24,12.59.33-.09.65-.18.98-.27.11-.03.22-.06.33-.1.32-.11.65-.19.98-.26,1.83-.5,3.65-1.01,5.46-1.5,5.37-1.6,10.82-3.08,16.11-4.8,2.72-1,5.48-2.19,8-3.73,3.11-1.93,5.97-4.22,8.84-6.5.85-.75,1.66-1.81,2.52-2.55,2.94-2.67,2.99-6.61,4.45-9.98,2.15-4.85.51-10.02-.27-14.93-.53-3.04-1.72-6.3-4.39-8.74Zm-12.66-45.25c-.7-.03-1.52.01-2.26.17-1.4.44-2.8.88-4.2,1.32-.54.2-1.28.87-1.55.71-.55-.31-1.02-1.01-1.1-1.63,0-.51.5-1.52.92-1.64,2.3-.37,4.48-.66,6.82-.71.51,0,1.06.81,1.69,1.23-.12.08-.27.35-.31.55Zm-10.02-5.77c1.56-.21,3.04-.53,4.59-.74,1.44-.13,2.88-.26,4.37-.07.7.03,1.18.73,1.8,1.16h0c-.15.27-.27.35-.35.74-4.53-.67-8.61.57-12.57,2.75-.76-2.88-.34-3.51,2.15-3.84Zm-5.22,42.42c-2.08-2.32-4.25-4.76-6.33-7.09-.32-.47-.4-1.09-.68-1.75h0c.67.23.98.19,1.02.5,2.36,2.48,4.64,4.84,6.99,7.32.24.35.16.74.28,1.17-.39-.07-1.13.09-1.29-.15Zm4.18-4.36c-4.23-3.24-8-6.8-9.64-11.98l.81-.55c.39.58,1.02,1.01,1.3,1.67,1.55,3.54,4.22,5.97,7.12,8.25.78.66,1.96,1.39.41,2.61Zm-15.85,54.54c-.54.2-1.17-.23-1.76-.34.23-.66.22-1.17.53-1.72.31-.55.85-.75,1.36-1.26h0c1.28-.36,2.76-.68,4.36-1.09,2.02-.52,3.97-1.16,5.95-1.49.51,0,1.21.54,1.76.84-.27.35-.5,1.02-.93,1.14-3.81,1.39-7.5,2.71-11.28,3.91Zm12.36,1.71c-2.8.88-5.8,1.72-8.75,2.37-.74.16-1.76-.34-2.54-.49h0c-.04-.31-.08-.62.07-.9,3.69-1.31,7.31-2.74,11.08-3.94.31-.04,1.06.81,1.57,1.31-.42.63-.89,1.45-1.43,1.65Zm17.1-23.37c-.54.71-1.62,1.61-2.41,1.46-1.37-.26-.99-1.71-.8-2.68.9-4.69,2.11-9.41-2.09-13.36,0,0,0,0,0,0h0s0,0,0,0c.55.31,1.02.5,1.45.89,2.87,2.98,4.61,6.55,4.52,10.69,0,1.01-.22,2.19-.68,3.01Zm2.35,1.97h0c1.11-2.11,2.11-4.15,3.39-6.03.73-1.68,1.03-3.24-.19-4.79-.47-.7-.75-1.36-1.27-2.37,2.94,1.58,4.72,5.97,4.13,9.6-.52,3.24-2.58,4.46-6.05,3.59Z"/><path class="cls-2" d="m203.66,38.29c-6.33-.51-6.55-.15-9.67.27-4.99.66-9.78,1.36-14.56,2.57-4.87,1.09-7.27,8.32-4.04,12.08,2.56,3.02,5.93,5.49,8.95,8.2,2.67,2.44,5.49,4.6,8.05,7.11,2.2,2.24,4.13,4.84,6.21,7.17,4.64,4.84,7.02,10.86,8.12,17.25.65,3.46.49,7.48-.31,11.07-1.65,8.08-6.48,14.24-13.35,18.39-4.7,2.84-10.06,4.95-15.07,7.33-1.44.63-2.8,1.39-4.16,1.63-2.1.41-5.71,1.3-5.71,1.3-3.15.91-7.1,1.41-10.3,1.73-3.1.62-5.82.32-8.73,0-.01,0-.03,0-.04,0-.28.02-.57-.02-.86-.11-10.58-1.58-20.07-8.27-13.56-15.9.28-.32,1.24-1.86,3.86-2.78,4.98-1.67,6.93-1.84,11.79-3.43,7.43-2.32,14.07-5.8,19.8-11.38,6.11-6.01,3.75-15.27-.03-19.85-4.09-4.53-7.91-9.41-13.12-12.85-2.9-1.77-5.1-4.52-7.69-6.84-3.1-2.82-6.2-5.65-8.1-9.45-.91-1.59-1.18-3.75-1.45-5.64-.54-3.81.02-7.49,2.11-10.43,5.52-7.64,13-13.39,22.14-16.19,6.15-1.96,12.61-2.43,19-3.53.62-.08,4.98-.79,5.97-.67,0,0,6.08-.24,10.06,1.52l3.7,1.22c9.55,4.22,15.63,8.74,9.65,17.72-2,3-8.67,2.51-8.67,2.51Z"/></g><path d="m182.3,84.46c-.43-.39-.9-.58-1.45-.89,4.2,3.95,2.99,8.67,2.09,13.36-.19.98-.57,2.42.8,2.68.78.15,1.87-.76,2.41-1.46.46-.82.69-1.99.68-3.01.09-4.13-1.66-7.71-4.52-10.69Z"/><path d="m190.42,86.93c.51,1.01.79,1.67,1.27,2.37,1.22,1.55.92,3.11.19,4.79-1.27,1.88-2.27,3.92-3.39,6.03h0c3.48.87,5.53-.35,6.05-3.59.6-3.63-1.19-8.02-4.13-9.6Z"/><path d="m168.88,114.77c-.55-.31-1.25-.85-1.76-.84-1.99.33-3.93.97-5.95,1.49-1.59.4-3.07.72-4.36,1.09h0c-.5.51-1.05.71-1.36,1.26-.31.55-.3,1.06-.53,1.72.59.11,1.21.54,1.76.34,3.77-1.2,7.47-2.51,11.28-3.91.43-.12.66-.78.93-1.14Z"/><path d="m157.82,122.5c-.15.27-.11.59-.07.9h0c.78.15,1.8.65,2.54.49,2.96-.65,5.95-1.49,8.75-2.37.54-.2,1.01-1.02,1.43-1.65-.51-.5-1.26-1.36-1.57-1.31-3.77,1.2-7.39,2.63-11.08,3.94Z"/><path d="m183.98,28.3c.07-.39.19-.47.35-.74h0c-.63-.42-1.1-1.12-1.8-1.16-1.48-.18-2.92-.06-4.37.07-1.56.21-3.04.53-4.59.74-2.49.33-2.92.96-2.15,3.84,3.96-2.17,8.05-3.41,12.57-2.75Z"/><path d="m172.11,62.66c-2.9-2.28-5.57-4.71-7.12-8.25-.28-.66-.9-1.08-1.3-1.67l-.81.55c1.64,5.17,5.41,8.73,9.64,11.98,1.55-1.22.38-1.95-.41-2.61Z"/><path d="m175.39,31.91c-.43.12-.93,1.14-.92,1.64.08.62.56,1.32,1.1,1.63.27.15,1.01-.51,1.55-.71,1.4-.44,2.8-.88,4.2-1.32.74-.16,1.56-.21,2.26-.17.04-.19.19-.47.31-.55-.63-.42-1.18-1.24-1.69-1.23-2.34.06-4.52.35-6.82.71Z"/><path d="m162.35,61.29c-.04-.31-.35-.27-1.02-.5h0c.28.66.36,1.28.68,1.75,2.08,2.32,4.25,4.76,6.33,7.09.16.23.9.07,1.29.15-.12-.43-.05-.82-.28-1.17-2.36-2.48-4.64-4.84-6.99-7.32Z"/></g></svg>